<?xml version="1.0" encoding="utf-8"?>
<!-- Generator: Adobe Illustrator 27.1.1, SVG Export Plug-In . SVG Version: 6.00 Build 0)  -->
<svg version="1.1" id="Layer_1" xmlns="http://www.w3.org/2000/svg" xmlns:xlink="http://www.w3.org/1999/xlink" x="0px" y="0px"
	 viewBox="0 0 1000 1000" style="enable-background:new 0 0 1000 1000;" xml:space="preserve">
<style type="text/css">
	.st0{fill:#919191;}
</style>
<g>
	<g>
		<g>
			<path class="st0" d="M501.2,2.7C225.4,1.6,1,228.6,0,509.7c-0.8,220.6,137.8,416.6,343.4,485.5c25,4.1,33-11.7,33-25.5v-86
				C238.1,914.2,208.6,817,208.6,817c-9.3-31.6-29.5-58.7-56.9-76.3c-45.4-31.6,3.5-30.5,3.5-30.5c31.8,4.2,59.9,22.9,76.4,50.9
				c28.9,52.3,93.7,71.2,145.3,42.2c2.3-25.8,13.4-50,31.5-68.2c-106.9-11.2-225.7-55-225.7-248.9c-1.4-50.8,16.4-100.3,49.9-137.9
				c-15.2-43.8-13.4-91.9,5-134.4c0,0,41.9-13.7,137.3,50.9c81.8-22.4,167.9-22.4,249.7,0c95.4-65.7,137.3-50.9,137.3-50.9
				c18.4,42.5,20.2,90.6,5,134.4c33.5,37.7,51.4,87.1,49.9,137.9c0,194.4-116.8,237.2-228.2,249.9c24.3,24.9,36.8,59.2,34.5,94.2
				v139.5c0,13.7,8,30,33.5,25.5c262-87.8,404.5-375.4,318.4-642.5C907.6,144.1,716.6,2.9,501.2,2.7z"/>
		</g>
	</g>
</g>
</svg>
