<?xml version="1.0" encoding="UTF-8"?>
<svg id="Layer_1" data-name="Layer 1" xmlns="http://www.w3.org/2000/svg" version="1.1" viewBox="0 0 1000 1000">
  <defs>
    <style>
      .cls-1 {
        fill: #000;
      }

      .cls-1, .cls-2 {
        stroke-width: 0px;
      }

      .cls-2 {
        fill: #f4f4f5;
      }
    </style>
  </defs>
  <path class="cls-1" d="M500,1000h0C223.9,1000,0,776.1,0,500h0C0,223.9,223.9,0,500,0h0c276.1,0,500,223.9,500,500h0c0,276.1-223.9,500-500,500Z"/>
  <g>
    <path class="cls-2" d="M184.2,387.3h132.9v427.7h-132.9v-427.7h0ZM250.7,174.7c42.5,0,77,34.5,77,77.1s-34.5,77.1-77,77.1-77.1-34.5-77.1-77.1c-.1-42.5,34.4-77.1,77.1-77.1"/>
    <path class="cls-2" d="M400.5,387.3h127.5v58.4h1.8c17.7-33.6,61-69.1,125.8-69.1,134.6,0,159.5,88.6,159.5,203.7v234.7h-132.9v-207.9c0-49.7-.9-113.4-69.1-113.4s-79.8,54-79.8,109.8v211.6h-132.8v-427.8Z"/>
  </g>
</svg>